# xmcd
#
# Track frame offsets:
#	150
#	18538
#	35852
#	50705
#	60978
#	72722
#	90083
#	100863
#	114470
#	126751
#	141007
#	152714
#	166936
#	184154
#	200821
#	213423
#	230606
#	241819
#	256962
#	273522
#
# Disc length: 3813 seconds
#
# Revision: 1
# Processed by: cddbd v1.5.2PL0 Copyright (c) Steve Scherf et al.
# Submitted via: audiograbber 1.83.01
#
DISCID=230ee314
DTITLE=Various Artist - CMT's 100 Greatest Country Duets - CD 5
DYEAR=2006
DGENRE=Country
TTITLE0=Chet Atkins and Mark Knopfler - Poor Boy Blues
TTITLE1=Willie Nelson and Ray Price - Faded Love
TTITLE2=Tanya Tucker and T Graham Brown - Don't Go Out
TTITLE3=Merle Haggard and Clint Eastwood - Bar Room Buddies
TTITLE4=Ferlin Husky and Jean Shepard - A Dear John Letter
TTITLE5=Ricky Skaggs and Sharon White - Love Can't Ever Get Better Than This
TTITLE6=Loretta Lynn and Ernest Tubb - Who's Gonna Take The Garbage Out
TTITLE7=Buck Owens and Ringo Starr - Act Naturally
TTITLE8=George Jones and Melba Montgomery - We Must Have Been Out Of Our Minds
TTITLE9=Tanya Tucker and Glen Campbell - Why Don't We Just Sleep On It Tonight
TTITLE10=Glen Campbell and Bobbie Gentry - (All I Have To Do) Is Dream
TTITLE11=Willie Nelson and Roger Miller and Ray Price - Old Friends
TTITLE12=Tanya Tucker and Delbert McClinton - Tell Me About It
TTITLE13=Clint Black and Wynonna Judd - A Bad Goodbye
TTITLE14=Porter Wagoner and Dolly Parton - Please Don't Stop Loving Me
TTITLE15=Aron Neville and Trisha Yearwood - I Fall To Pieces
TTITLE16=Johnny Lee and Lane Brody - The Yellow Rose
TTITLE17=Keith Whitley and Earl Thomas Conley - Brotherly Love
TTITLE18=Kenny Rogers and Kim Carnes - Don't Fall in Love With a Dreamer
TTITLE19=Conway Twitty and Loretta Lynn - You're The Reason Our Kids Are Ugly
EXTD=
EXTT0=
EXTT1=
EXTT2=
EXTT3=
EXTT4=
EXTT5=
EXTT6=
EXTT7=
EXTT8=
EXTT9=
EXTT10=
EXTT11=
EXTT12=
EXTT13=
EXTT14=
EXTT15=
EXTT16=
EXTT17=
EXTT18=
EXTT19=
PLAYORDER=
